<svg width="390" height="107" viewBox="0 0 390 107" fill="none" xmlns="http://www.w3.org/2000/svg">
<g clip-path="url(#clip0_76_494)">
<rect width="390" height="108.16" fill="#180048"/>
<line x1="-6.75999" y1="2.6002" x2="398.84" y2="2.6002" stroke="#2D1A83" stroke-width="5.2" stroke-linecap="round"/>
<path d="M252.84 30.1602L253.349 30.2663C253.398 30.032 253.281 29.7948 253.065 29.6913C252.849 29.5879 252.591 29.645 252.439 29.8296L252.84 30.1602ZM238.28 47.8402L237.879 47.5096C237.751 47.665 237.724 47.8801 237.81 48.0621C237.896 48.2441 238.079 48.3602 238.28 48.3602V47.8402ZM248.68 47.8402L249.163 48.0333L249.448 47.3202H248.68V47.8402ZM243.48 60.8402L242.997 60.6471C242.902 60.8848 242.994 61.1564 243.214 61.2872C243.434 61.418 243.717 61.3691 243.88 61.172L243.48 60.8402ZM258.56 42.6402L258.96 42.972C259.089 42.8168 259.116 42.6013 259.031 42.419C258.945 42.2366 258.762 42.1202 258.56 42.1202V42.6402ZM250.24 42.6402L249.731 42.5341L249.601 43.1602H250.24V42.6402ZM252.439 29.8296L237.879 47.5096L238.681 48.1708L253.241 30.4908L252.439 29.8296ZM238.28 48.3602H248.68V47.3202H238.28V48.3602ZM248.197 47.6471L242.997 60.6471L243.963 61.0333L249.163 48.0333L248.197 47.6471ZM243.88 61.172L258.96 42.972L258.16 42.3084L243.08 60.5084L243.88 61.172ZM258.56 42.1202H250.24V43.1602H258.56V42.1202ZM250.749 42.7463L253.349 30.2663L252.331 30.0541L249.731 42.5341L250.749 42.7463Z" fill="#F0FFFF"/>
<path d="M238.96 80.5482C238.96 81.0909 238.85 81.5822 238.63 82.0222C238.41 82.4549 238.073 82.7996 237.618 83.0562C237.171 83.3056 236.599 83.4302 235.902 83.4302C234.927 83.4302 234.182 83.1662 233.669 82.6382C233.163 82.1029 232.91 81.3989 232.91 80.5262V75.4662H233.9V80.5592C233.9 81.1972 234.069 81.6922 234.406 82.0442C234.751 82.3962 235.268 82.5722 235.957 82.5722C236.434 82.5722 236.819 82.4879 237.112 82.3192C237.413 82.1432 237.633 81.9049 237.772 81.6042C237.911 81.2962 237.981 80.9442 237.981 80.5482V75.4662H238.96V80.5482ZM244.74 81.6922C244.74 82.0736 244.645 82.3926 244.454 82.6492C244.263 82.9059 243.992 83.1002 243.64 83.2322C243.288 83.3642 242.87 83.4302 242.386 83.4302C241.975 83.4302 241.62 83.3972 241.319 83.3312C241.026 83.2652 240.765 83.1736 240.538 83.0562V82.1762C240.773 82.2936 241.055 82.4036 241.385 82.5062C241.722 82.6016 242.063 82.6492 242.408 82.6492C242.899 82.6492 243.255 82.5722 243.475 82.4182C243.695 82.2569 243.805 82.0442 243.805 81.7802C243.805 81.6336 243.765 81.5016 243.684 81.3842C243.603 81.2669 243.457 81.1496 243.244 81.0322C243.039 80.9149 242.742 80.7829 242.353 80.6362C241.972 80.4896 241.645 80.3429 241.374 80.1962C241.103 80.0496 240.894 79.8736 240.747 79.6682C240.6 79.4629 240.527 79.1989 240.527 78.8762C240.527 78.3776 240.729 77.9926 241.132 77.7212C241.543 77.4499 242.078 77.3142 242.738 77.3142C243.097 77.3142 243.431 77.3509 243.739 77.4242C244.054 77.4902 244.348 77.5856 244.619 77.7102L244.289 78.4802C244.128 78.4069 243.955 78.3446 243.772 78.2932C243.596 78.2346 243.416 78.1906 243.233 78.1612C243.05 78.1246 242.863 78.1062 242.672 78.1062C242.276 78.1062 241.972 78.1722 241.759 78.3042C241.554 78.4289 241.451 78.6012 241.451 78.8212C241.451 78.9826 241.499 79.1219 241.594 79.2392C241.689 79.3492 241.847 79.4592 242.067 79.5692C242.294 79.6719 242.595 79.7966 242.969 79.9432C243.343 80.0826 243.662 80.2256 243.926 80.3722C244.19 80.5189 244.392 80.6986 244.531 80.9112C244.67 81.1166 244.74 81.3769 244.74 81.6922ZM248.398 77.3252C249.116 77.3252 249.648 77.4829 249.993 77.7982C250.337 78.1136 250.51 78.6159 250.51 79.3052V83.3202H249.806L249.619 82.4842H249.575C249.406 82.6969 249.23 82.8766 249.047 83.0232C248.871 83.1626 248.665 83.2652 248.431 83.3312C248.203 83.3972 247.925 83.4302 247.595 83.4302C247.243 83.4302 246.924 83.3679 246.638 83.2432C246.359 83.1186 246.139 82.9279 245.978 82.6712C245.816 82.4072 245.736 82.0772 245.736 81.6812C245.736 81.0946 245.967 80.6436 246.429 80.3282C246.891 80.0056 247.602 79.8296 248.563 79.8002L249.564 79.7672V79.4152C249.564 78.9239 249.457 78.5829 249.245 78.3922C249.032 78.2016 248.731 78.1062 248.343 78.1062C248.035 78.1062 247.741 78.1539 247.463 78.2492C247.184 78.3372 246.924 78.4399 246.682 78.5572L246.385 77.8312C246.641 77.6919 246.946 77.5746 247.298 77.4792C247.65 77.3766 248.016 77.3252 248.398 77.3252ZM248.684 80.4712C247.95 80.5006 247.441 80.6179 247.155 80.8232C246.876 81.0286 246.737 81.3182 246.737 81.6922C246.737 82.0222 246.836 82.2642 247.034 82.4182C247.239 82.5722 247.499 82.6492 247.815 82.6492C248.313 82.6492 248.728 82.5136 249.058 82.2422C249.388 81.9636 249.553 81.5382 249.553 80.9662V80.4382L248.684 80.4712ZM254.421 77.3142C254.809 77.3142 255.158 77.3876 255.466 77.5342C255.781 77.6809 256.049 77.9046 256.269 78.2052H256.324L256.456 77.4242H257.226V83.4192C257.226 83.9766 257.13 84.4422 256.94 84.8162C256.749 85.1976 256.459 85.4836 256.071 85.6742C255.682 85.8649 255.187 85.9602 254.586 85.9602C254.16 85.9602 253.768 85.9272 253.409 85.8612C253.057 85.8026 252.741 85.7109 252.463 85.5862V84.6952C252.653 84.7906 252.862 84.8712 253.09 84.9372C253.317 85.0106 253.563 85.0656 253.827 85.1022C254.091 85.1389 254.362 85.1572 254.641 85.1572C255.147 85.1572 255.543 85.0069 255.829 84.7062C256.122 84.4129 256.269 84.0096 256.269 83.4962V83.2652C256.269 83.1772 256.272 83.0526 256.28 82.8912C256.287 82.7226 256.294 82.6052 256.302 82.5392H256.258C256.052 82.8399 255.796 83.0636 255.488 83.2102C255.187 83.3569 254.835 83.4302 254.432 83.4302C253.669 83.4302 253.071 83.1626 252.639 82.6272C252.213 82.0919 252.001 81.3439 252.001 80.3832C252.001 79.7526 252.096 79.2099 252.287 78.7552C252.485 78.2932 252.763 77.9376 253.123 77.6882C253.482 77.4389 253.915 77.3142 254.421 77.3142ZM254.553 78.1282C254.223 78.1282 253.94 78.2162 253.706 78.3922C253.478 78.5682 253.302 78.8249 253.178 79.1622C253.06 79.4996 253.002 79.9102 253.002 80.3942C253.002 81.1202 253.134 81.6776 253.398 82.0662C253.669 82.4476 254.061 82.6382 254.575 82.6382C254.875 82.6382 255.132 82.6016 255.345 82.5282C255.557 82.4476 255.733 82.3266 255.873 82.1652C256.012 81.9966 256.115 81.7839 256.181 81.5272C256.247 81.2706 256.28 80.9662 256.28 80.6142V80.3832C256.28 79.8479 256.217 79.4152 256.093 79.0852C255.975 78.7552 255.788 78.5132 255.532 78.3592C255.275 78.2052 254.949 78.1282 254.553 78.1282ZM261.375 77.3142C261.881 77.3142 262.314 77.4242 262.673 77.6442C263.04 77.8642 263.319 78.1759 263.509 78.5792C263.707 78.9752 263.806 79.4409 263.806 79.9762V80.5592H259.769C259.784 81.2266 259.953 81.7362 260.275 82.0882C260.605 82.4329 261.064 82.6052 261.65 82.6052C262.024 82.6052 262.354 82.5722 262.64 82.5062C262.934 82.4329 263.234 82.3302 263.542 82.1982V83.0452C263.242 83.1772 262.945 83.2726 262.651 83.3312C262.358 83.3972 262.01 83.4302 261.606 83.4302C261.049 83.4302 260.554 83.3166 260.121 83.0892C259.696 82.8619 259.362 82.5246 259.12 82.0772C258.886 81.6226 258.768 81.0689 258.768 80.4162C258.768 79.7709 258.875 79.2172 259.087 78.7552C259.307 78.2932 259.612 77.9376 260 77.6882C260.396 77.4389 260.855 77.3142 261.375 77.3142ZM261.364 78.1062C260.902 78.1062 260.536 78.2566 260.264 78.5572C260 78.8506 259.843 79.2612 259.791 79.7892H262.794C262.794 79.4519 262.743 79.1586 262.64 78.9092C262.538 78.6599 262.38 78.4656 262.167 78.3262C261.962 78.1796 261.694 78.1062 261.364 78.1062Z" fill="white"/>
<path d="M64.3265 51.8301C63.8845 51.1759 65.4316 49.2406 65.4316 49.2406C65.4316 49.2406 67.5036 45.0157 67.918 43.1076C68.3324 41.1996 67.0892 36.5658 66.1222 35.3392C65.101 34.0437 63.3595 32.7497 62.6689 32.2045C61.9782 31.6594 59.4917 30.7053 57.9723 30.4328C56.4528 30.1602 54.657 30.1602 52.9994 30.1602C51.3418 30.1602 49.9604 30.4328 48.1646 31.1142C46.728 31.6594 45.448 32.6134 44.9875 33.0223C44.1587 33.5674 42.6392 35.748 42.5011 36.0206C42.363 36.2932 41.1197 39.019 40.9816 40.7907C40.8435 42.5625 41.396 45.1519 41.8104 46.106C42.2248 47.06 43.1918 48.5592 44.0206 49.7858C44.6836 50.767 44.3889 51.6484 44.1587 51.9664C43.6522 52.3298 42.6392 53.2747 42.6392 54.147C42.6392 55.2373 44.8494 54.8284 45.1257 54.8284C45.3467 54.8284 45.8624 54.6467 46.0926 54.5559C47.3082 54.3378 46.8754 54.7376 46.507 54.9647C46.0466 55.2373 45.098 55.8097 44.9875 55.9187C44.8494 56.055 44.0206 56.4639 44.1587 57.0091C44.2969 57.5542 46.0926 57.9631 47.3358 57.9631C48.5791 57.9631 50.2367 57.4179 50.9274 56.7365C51.618 56.055 51.618 57.0091 51.7562 57.5542C51.8667 57.9903 52.3548 58.5537 52.585 58.7808C53.8282 59.7348 55.2096 59.0534 55.4858 58.9171C55.7621 58.7808 56.729 57.6905 56.729 56.8728C56.729 56.2186 57.2816 56.5093 57.5579 56.7365L58.2485 57.1453C59.2155 57.8268 61.84 58.5082 63.4977 57.5542C64.8238 56.791 64.3265 56.3276 63.9121 56.1913C63.3135 56.0096 62.0334 55.4554 61.7019 54.6921C61.3704 53.9289 61.7479 54.1924 61.9782 54.4196C62.1163 54.5559 62.807 54.9647 64.4646 54.9647C66.1222 54.9647 66.1683 54.147 65.9841 53.7381C65.6157 53.3747 64.7685 52.4843 64.3265 51.8301Z" stroke="#F0FFFF" stroke-width="1.04"/>
<path d="M45.553 81.7602H44.563V78.0972H40.537V81.7602H39.547V73.9062H40.537V77.2282H44.563V73.9062H45.553V81.7602ZM52.6943 78.8012C52.6943 79.2926 52.6283 79.7289 52.4963 80.1102C52.3716 80.4842 52.1883 80.8032 51.9463 81.0672C51.7116 81.3312 51.422 81.5329 51.0773 81.6722C50.74 81.8042 50.3623 81.8702 49.9443 81.8702C49.5556 81.8702 49.1963 81.8042 48.8663 81.6722C48.5363 81.5329 48.2503 81.3312 48.0083 81.0672C47.7663 80.8032 47.5756 80.4842 47.4363 80.1102C47.3043 79.7289 47.2383 79.2926 47.2383 78.8012C47.2383 78.1486 47.3483 77.5986 47.5683 77.1512C47.7883 76.6966 48.1036 76.3519 48.5143 76.1172C48.925 75.8752 49.4126 75.7542 49.9773 75.7542C50.5126 75.7542 50.982 75.8752 51.3853 76.1172C51.796 76.3519 52.115 76.6966 52.3423 77.1512C52.577 77.5986 52.6943 78.1486 52.6943 78.8012ZM48.2393 78.8012C48.2393 79.2632 48.298 79.6666 48.4153 80.0112C48.54 80.3486 48.7306 80.6089 48.9873 80.7922C49.244 80.9756 49.5703 81.0672 49.9663 81.0672C50.3623 81.0672 50.6886 80.9756 50.9453 80.7922C51.202 80.6089 51.389 80.3486 51.5063 80.0112C51.631 79.6666 51.6933 79.2632 51.6933 78.8012C51.6933 78.3319 51.631 77.9322 51.5063 77.6022C51.3816 77.2722 51.191 77.0192 50.9343 76.8432C50.685 76.6599 50.3586 76.5682 49.9553 76.5682C49.354 76.5682 48.9176 76.7662 48.6463 77.1622C48.375 77.5582 48.2393 78.1046 48.2393 78.8012ZM60.6965 75.7542C61.3638 75.7542 61.8625 75.9266 62.1925 76.2712C62.5225 76.6086 62.6875 77.1586 62.6875 77.9212V81.7602H61.7305V77.9652C61.7305 77.5032 61.6315 77.1549 61.4335 76.9202C61.2428 76.6856 60.9421 76.5682 60.5315 76.5682C59.9595 76.5682 59.5488 76.7332 59.2995 77.0632C59.0575 77.3932 58.9365 77.8736 58.9365 78.5042V81.7602H57.9795V77.9652C57.9795 77.6572 57.9355 77.4006 57.8475 77.1952C57.7595 76.9826 57.6275 76.8249 57.4515 76.7222C57.2755 76.6196 57.0481 76.5682 56.7695 76.5682C56.3735 76.5682 56.0618 76.6526 55.8345 76.8212C55.6071 76.9826 55.4421 77.2209 55.3395 77.5362C55.2441 77.8516 55.1965 78.2402 55.1965 78.7022V81.7602H54.2285V75.8642H55.0095L55.1525 76.6672H55.2075C55.3321 76.4619 55.4825 76.2932 55.6585 76.1612C55.8418 76.0219 56.0435 75.9192 56.2635 75.8532C56.4835 75.7872 56.7108 75.7542 56.9455 75.7542C57.4001 75.7542 57.7778 75.8349 58.0785 75.9962C58.3865 76.1576 58.6101 76.4069 58.7495 76.7442H58.8045C59.0025 76.4069 59.2701 76.1576 59.6075 75.9962C59.9521 75.8349 60.3151 75.7542 60.6965 75.7542ZM66.7857 75.7542C67.2917 75.7542 67.7244 75.8642 68.0837 76.0842C68.4504 76.3042 68.7291 76.6159 68.9197 77.0192C69.1177 77.4152 69.2167 77.8809 69.2167 78.4162V78.9992H65.1797C65.1944 79.6666 65.3631 80.1762 65.6857 80.5282C66.0157 80.8729 66.4741 81.0452 67.0607 81.0452C67.4347 81.0452 67.7647 81.0122 68.0507 80.9462C68.3441 80.8729 68.6447 80.7702 68.9527 80.6382V81.4852C68.6521 81.6172 68.3551 81.7126 68.0617 81.7712C67.7684 81.8372 67.4201 81.8702 67.0167 81.8702C66.4594 81.8702 65.9644 81.7566 65.5317 81.5292C65.1064 81.3019 64.7727 80.9646 64.5307 80.5172C64.2961 80.0626 64.1787 79.5089 64.1787 78.8562C64.1787 78.2109 64.2851 77.6572 64.4977 77.1952C64.7177 76.7332 65.0221 76.3776 65.4107 76.1282C65.8067 75.8789 66.2651 75.7542 66.7857 75.7542ZM66.7747 76.5462C66.3127 76.5462 65.9461 76.6966 65.6747 76.9972C65.4107 77.2906 65.2531 77.7012 65.2017 78.2292H68.2047C68.2047 77.8919 68.1534 77.5986 68.0507 77.3492C67.9481 77.0999 67.7904 76.9056 67.5777 76.7662C67.3724 76.6196 67.1047 76.5462 66.7747 76.5462Z" fill="white"/>
<path d="M159.513 39.8682H153.033C153.637 39.5547 154.197 39.1375 154.697 38.6302C155.043 38.2685 155.322 37.8267 155.516 37.3324C155.71 36.8382 155.815 36.3021 155.824 35.758C155.839 35.1549 155.749 34.5546 155.56 33.994C155.37 33.4333 155.085 32.924 154.722 32.4974C154.358 32.0708 153.925 31.7359 153.448 31.5131C152.97 31.2904 152.459 31.1845 151.946 31.2021C151.483 31.2131 151.026 31.3365 150.606 31.5644C150.185 31.7924 149.809 32.12 149.501 32.5267C148.722 33.5589 148.232 34.9037 147.92 36.1928C147.61 34.9037 147.12 33.562 146.339 32.5267C146.031 32.12 145.655 31.7924 145.234 31.5644C144.814 31.3365 144.357 31.2131 143.894 31.2021C143.381 31.1845 142.87 31.2904 142.392 31.5131C141.915 31.7359 141.482 32.0708 141.118 32.4974C140.755 32.924 140.47 33.4333 140.281 33.994C140.091 34.5546 140.001 35.1549 140.016 35.758C140.025 36.3021 140.13 36.8382 140.324 37.3324C140.518 37.8267 140.797 38.2685 141.143 38.6302C141.643 39.1375 142.203 39.5547 142.807 39.8682H136.327C135.908 39.8682 135.506 40.0638 135.209 40.4121C134.913 40.7604 134.746 41.2327 134.746 41.7252V46.6773C134.746 47.1698 134.913 47.6421 135.209 47.9904C135.506 48.3387 135.908 48.5343 136.327 48.5343H136.854V59.0575C136.854 59.55 137.021 60.0223 137.317 60.3706C137.614 60.7188 138.016 60.9145 138.435 60.9145H157.405C157.824 60.9145 158.227 60.7188 158.523 60.3706C158.819 60.0223 158.986 59.55 158.986 59.0575V48.5343H159.513C159.932 48.5343 160.334 48.3387 160.631 47.9904C160.927 47.6421 161.094 47.1698 161.094 46.6773V41.7252C161.094 41.2327 160.927 40.7604 160.631 40.4121C160.334 40.0638 159.932 39.8682 159.513 39.8682ZM150.291 33.3469C150.504 33.0675 150.764 32.8428 151.054 32.6867C151.344 32.5307 151.658 32.4467 151.978 32.4401H152.058C152.421 32.4405 152.78 32.5264 153.114 32.6926C153.448 32.8589 153.751 33.1021 154.004 33.4079C154.257 33.7137 154.455 34.0759 154.586 34.4732C154.718 34.8705 154.781 35.2947 154.77 35.7208C154.765 36.0956 154.693 36.465 154.56 36.8059C154.428 37.1467 154.236 37.4517 153.998 37.7017C152.406 39.3575 149.642 39.7459 148.465 39.8357C148.547 38.4646 148.876 35.2256 150.291 33.3469ZM141.07 35.7208C141.059 35.2947 141.122 34.8705 141.254 34.4732C141.385 34.0759 141.584 33.7137 141.836 33.4079C142.089 33.1021 142.392 32.8589 142.726 32.6926C143.06 32.5264 143.419 32.4405 143.782 32.4401H143.862C144.182 32.4467 144.496 32.5307 144.786 32.6867C145.076 32.8428 145.336 33.0675 145.549 33.3469C146.96 35.2179 147.289 38.4646 147.365 39.8465C146.194 39.7568 143.43 39.3683 141.832 37.7125C141.595 37.4603 141.405 37.1532 141.274 36.8104C141.142 36.4676 141.073 36.0967 141.07 35.7208Z" fill="#FF2FFB"/>
<path d="M133.442 81.2933C133.442 81.7627 133.328 82.1623 133.101 82.4923C132.874 82.815 132.547 83.0643 132.122 83.2403C131.704 83.4163 131.209 83.5043 130.637 83.5043C130.344 83.5043 130.061 83.4897 129.79 83.4603C129.526 83.431 129.284 83.3907 129.064 83.3393C128.844 83.2807 128.65 83.211 128.481 83.1303V82.1843C128.745 82.3017 129.071 82.408 129.46 82.5033C129.856 82.5987 130.263 82.6463 130.681 82.6463C131.07 82.6463 131.396 82.595 131.66 82.4923C131.924 82.3897 132.122 82.243 132.254 82.0523C132.386 81.8617 132.452 81.638 132.452 81.3813C132.452 81.1247 132.397 80.9083 132.287 80.7323C132.177 80.5563 131.986 80.395 131.715 80.2483C131.451 80.0943 131.081 79.933 130.604 79.7643C130.267 79.6397 129.97 79.5077 129.713 79.3683C129.464 79.2217 129.255 79.0567 129.086 78.8733C128.917 78.69 128.789 78.481 128.701 78.2463C128.62 78.0117 128.58 77.7403 128.58 77.4323C128.58 77.0143 128.686 76.6587 128.899 76.3653C129.112 76.0647 129.405 75.8337 129.779 75.6723C130.16 75.511 130.597 75.4303 131.088 75.4303C131.521 75.4303 131.917 75.4707 132.276 75.5513C132.635 75.632 132.962 75.7383 133.255 75.8703L132.947 76.7173C132.676 76.6 132.379 76.501 132.056 76.4203C131.741 76.3397 131.411 76.2993 131.066 76.2993C130.736 76.2993 130.461 76.347 130.241 76.4423C130.021 76.5377 129.856 76.6733 129.746 76.8493C129.636 77.018 129.581 77.216 129.581 77.4433C129.581 77.7073 129.636 77.9273 129.746 78.1033C129.856 78.2793 130.036 78.437 130.285 78.5763C130.534 78.7157 130.872 78.866 131.297 79.0273C131.759 79.196 132.148 79.3793 132.463 79.5773C132.786 79.768 133.028 79.999 133.189 80.2703C133.358 80.5417 133.442 80.8827 133.442 81.2933ZM137.125 77.3993C137.844 77.3993 138.376 77.557 138.72 77.8723C139.065 78.1877 139.237 78.69 139.237 79.3793V83.3943H138.533L138.346 82.5583H138.302C138.134 82.771 137.958 82.9507 137.774 83.0973C137.598 83.2367 137.393 83.3393 137.158 83.4053C136.931 83.4713 136.652 83.5043 136.322 83.5043C135.97 83.5043 135.651 83.442 135.365 83.3173C135.087 83.1927 134.867 83.002 134.705 82.7453C134.544 82.4813 134.463 82.1513 134.463 81.7553C134.463 81.1687 134.694 80.7177 135.156 80.4023C135.618 80.0797 136.33 79.9037 137.29 79.8743L138.291 79.8413V79.4893C138.291 78.998 138.185 78.657 137.972 78.4663C137.76 78.2757 137.459 78.1803 137.07 78.1803C136.762 78.1803 136.469 78.228 136.19 78.3233C135.912 78.4113 135.651 78.514 135.409 78.6313L135.112 77.9053C135.369 77.766 135.673 77.6487 136.025 77.5533C136.377 77.4507 136.744 77.3993 137.125 77.3993ZM137.411 80.5453C136.678 80.5747 136.168 80.692 135.882 80.8973C135.604 81.1027 135.464 81.3923 135.464 81.7663C135.464 82.0963 135.563 82.3383 135.761 82.4923C135.967 82.6463 136.227 82.7233 136.542 82.7233C137.041 82.7233 137.455 82.5877 137.785 82.3163C138.115 82.0377 138.28 81.6123 138.28 81.0403V80.5123L137.411 80.5453ZM142.356 83.3943L140.123 77.4983H141.157L142.411 80.9743C142.47 81.1357 142.532 81.3153 142.598 81.5133C142.664 81.7113 142.723 81.902 142.774 82.0853C142.826 82.2613 142.862 82.4117 142.884 82.5363H142.928C142.958 82.4117 142.998 82.2577 143.049 82.0743C143.108 81.891 143.17 81.7003 143.236 81.5023C143.31 81.3043 143.372 81.1283 143.423 80.9743L144.677 77.4983H145.711L143.467 83.3943H142.356ZM147.612 77.4983V83.3943H146.644V77.4983H147.612ZM147.139 75.2873C147.286 75.2873 147.414 75.3387 147.524 75.4413C147.642 75.5367 147.7 75.6907 147.7 75.9033C147.7 76.1087 147.642 76.2627 147.524 76.3653C147.414 76.468 147.286 76.5193 147.139 76.5193C146.978 76.5193 146.842 76.468 146.732 76.3653C146.622 76.2627 146.567 76.1087 146.567 75.9033C146.567 75.6907 146.622 75.5367 146.732 75.4413C146.842 75.3387 146.978 75.2873 147.139 75.2873ZM152.318 77.3883C153.022 77.3883 153.554 77.5607 153.913 77.9053C154.272 78.2427 154.452 78.7927 154.452 79.5553V83.3943H153.495V79.6213C153.495 79.1447 153.389 78.789 153.176 78.5543C152.963 78.3197 152.63 78.2023 152.175 78.2023C151.522 78.2023 151.071 78.3857 150.822 78.7523C150.573 79.119 150.448 79.647 150.448 80.3363V83.3943H149.48V77.4983H150.261L150.404 78.3013H150.459C150.591 78.096 150.752 77.9273 150.943 77.7953C151.141 77.656 151.357 77.5533 151.592 77.4873C151.827 77.4213 152.069 77.3883 152.318 77.3883ZM158.37 77.3883C158.759 77.3883 159.107 77.4617 159.415 77.6083C159.73 77.755 159.998 77.9787 160.218 78.2793H160.273L160.405 77.4983H161.175V83.4933C161.175 84.0507 161.08 84.5163 160.889 84.8903C160.698 85.2717 160.409 85.5577 160.02 85.7483C159.631 85.939 159.136 86.0343 158.535 86.0343C158.11 86.0343 157.717 86.0013 157.358 85.9353C157.006 85.8767 156.691 85.785 156.412 85.6603V84.7693C156.603 84.8647 156.812 84.9453 157.039 85.0113C157.266 85.0847 157.512 85.1397 157.776 85.1763C158.04 85.213 158.311 85.2313 158.59 85.2313C159.096 85.2313 159.492 85.081 159.778 84.7803C160.071 84.487 160.218 84.0837 160.218 83.5703V83.3393C160.218 83.2513 160.222 83.1267 160.229 82.9653C160.236 82.7967 160.244 82.6793 160.251 82.6133H160.207C160.002 82.914 159.745 83.1377 159.437 83.2843C159.136 83.431 158.784 83.5043 158.381 83.5043C157.618 83.5043 157.021 83.2367 156.588 82.7013C156.163 82.166 155.95 81.418 155.95 80.4573C155.95 79.8267 156.045 79.284 156.236 78.8293C156.434 78.3673 156.713 78.0117 157.072 77.7623C157.431 77.513 157.864 77.3883 158.37 77.3883ZM158.502 78.2023C158.172 78.2023 157.89 78.2903 157.655 78.4663C157.428 78.6423 157.252 78.899 157.127 79.2363C157.01 79.5737 156.951 79.9843 156.951 80.4683C156.951 81.1943 157.083 81.7517 157.347 82.1403C157.618 82.5217 158.011 82.7123 158.524 82.7123C158.825 82.7123 159.081 82.6757 159.294 82.6023C159.507 82.5217 159.683 82.4007 159.822 82.2393C159.961 82.0707 160.064 81.858 160.13 81.6013C160.196 81.3447 160.229 81.0403 160.229 80.6883V80.4573C160.229 79.922 160.167 79.4893 160.042 79.1593C159.925 78.8293 159.738 78.5873 159.481 78.4333C159.224 78.2793 158.898 78.2023 158.502 78.2023ZM166.887 81.7663C166.887 82.1477 166.791 82.4667 166.601 82.7233C166.41 82.98 166.139 83.1743 165.787 83.3063C165.435 83.4383 165.017 83.5043 164.533 83.5043C164.122 83.5043 163.766 83.4713 163.466 83.4053C163.172 83.3393 162.912 83.2477 162.685 83.1303V82.2503C162.919 82.3677 163.202 82.4777 163.532 82.5803C163.869 82.6757 164.21 82.7233 164.555 82.7233C165.046 82.7233 165.402 82.6463 165.622 82.4923C165.842 82.331 165.952 82.1183 165.952 81.8543C165.952 81.7077 165.911 81.5757 165.831 81.4583C165.75 81.341 165.603 81.2237 165.391 81.1063C165.185 80.989 164.888 80.857 164.5 80.7103C164.118 80.5637 163.792 80.417 163.521 80.2703C163.249 80.1237 163.04 79.9477 162.894 79.7423C162.747 79.537 162.674 79.273 162.674 78.9503C162.674 78.4517 162.875 78.0667 163.279 77.7953C163.689 77.524 164.225 77.3883 164.885 77.3883C165.244 77.3883 165.578 77.425 165.886 77.4983C166.201 77.5643 166.494 77.6597 166.766 77.7843L166.436 78.5543C166.274 78.481 166.102 78.4187 165.919 78.3673C165.743 78.3087 165.563 78.2647 165.38 78.2353C165.196 78.1987 165.009 78.1803 164.819 78.1803C164.423 78.1803 164.118 78.2463 163.906 78.3783C163.7 78.503 163.598 78.6753 163.598 78.8953C163.598 79.0567 163.645 79.196 163.741 79.3133C163.836 79.4233 163.994 79.5333 164.214 79.6433C164.441 79.746 164.742 79.8707 165.116 80.0173C165.49 80.1567 165.809 80.2997 166.073 80.4463C166.337 80.593 166.538 80.7727 166.678 80.9853C166.817 81.1907 166.887 81.451 166.887 81.7663Z" fill="white"/>
<path d="M351 41.373C352.213 41.9048 352.56 43.0336 352.56 43.6802C352.56 47.1469 352.56 54.7042 352.56 57.2002C352.56 59.6962 350.48 60.6669 349.44 60.8402H329.16C328.971 60.7929 328.798 60.7229 328.64 60.6342M351 41.373C350.587 41.192 350.074 41.0802 349.44 41.0802C346.944 41.0802 334.533 41.0802 328.64 41.0802C328.12 41.0802 327.08 41.2882 327.08 42.1202C327.08 42.9522 327.08 52.5202 327.08 57.2002C327.08 58.122 327.407 59.9427 328.64 60.6342M351 41.373V35.8802C351 35.3602 350.48 34.3202 348.4 34.3202C346.32 34.3202 335.053 34.3202 329.68 34.3202C328.64 34.4935 326.56 35.2562 326.56 36.9202C326.56 38.5842 326.56 41.0802 326.56 42.1202V53.0402V58.2402C326.733 58.9696 327.392 60.4695 328.64 60.6342" stroke="#F0FFFF" stroke-width="1.04"/>
<circle cx="348.92" cy="51.4801" r="1.56" fill="#D9D9D9"/>
<path d="M334.871 75.4662C335.524 75.4662 336.07 75.5285 336.51 75.6532C336.957 75.7779 337.291 75.9832 337.511 76.2692C337.738 76.5552 337.852 76.9365 337.852 77.4132C337.852 77.7212 337.793 77.9962 337.676 78.2382C337.566 78.4729 337.397 78.6709 337.17 78.8322C336.95 78.9862 336.679 79.0925 336.356 79.1512V79.2062C336.686 79.2575 336.983 79.3529 337.247 79.4922C337.518 79.6315 337.731 79.8295 337.885 80.0862C338.039 80.3429 338.116 80.6765 338.116 81.0872C338.116 81.5639 338.006 81.9709 337.786 82.3082C337.566 82.6382 337.251 82.8912 336.84 83.0672C336.437 83.2359 335.953 83.3202 335.388 83.3202H332.627V75.4662H334.871ZM335.069 78.8102C335.744 78.8102 336.206 78.7039 336.455 78.4912C336.704 78.2712 336.829 77.9485 336.829 77.5232C336.829 77.0905 336.675 76.7825 336.367 76.5992C336.066 76.4085 335.582 76.3132 334.915 76.3132H333.617V78.8102H335.069ZM333.617 79.6352V82.4842H335.201C335.898 82.4842 336.382 82.3485 336.653 82.0772C336.924 81.8059 337.06 81.4502 337.06 81.0102C337.06 80.7315 336.998 80.4895 336.873 80.2842C336.756 80.0789 336.554 79.9212 336.268 79.8112C335.989 79.6939 335.608 79.6352 335.124 79.6352H333.617ZM340.617 77.4242V83.3202H339.649V77.4242H340.617ZM340.144 75.2132C340.291 75.2132 340.419 75.2645 340.529 75.3672C340.647 75.4625 340.705 75.6165 340.705 75.8292C340.705 76.0345 340.647 76.1885 340.529 76.2912C340.419 76.3939 340.291 76.4452 340.144 76.4452C339.983 76.4452 339.847 76.3939 339.737 76.2912C339.627 76.1885 339.572 76.0345 339.572 75.8292C339.572 75.6165 339.627 75.4625 339.737 75.3672C339.847 75.2645 339.983 75.2132 340.144 75.2132ZM343.453 83.3202H342.485V74.9602H343.453V83.3202ZM346.289 83.3202H345.321V74.9602H346.289V83.3202ZM351.996 81.6922C351.996 82.0735 351.901 82.3925 351.71 82.6492C351.52 82.9059 351.248 83.1002 350.896 83.2322C350.544 83.3642 350.126 83.4302 349.642 83.4302C349.232 83.4302 348.876 83.3972 348.575 83.3312C348.282 83.2652 348.022 83.1735 347.794 83.0562V82.1762C348.029 82.2935 348.311 82.4035 348.641 82.5062C348.979 82.6015 349.32 82.6492 349.664 82.6492C350.156 82.6492 350.511 82.5722 350.731 82.4182C350.951 82.2569 351.061 82.0442 351.061 81.7802C351.061 81.6335 351.021 81.5015 350.94 81.3842C350.86 81.2669 350.713 81.1495 350.5 81.0322C350.295 80.9149 349.998 80.7829 349.609 80.6362C349.228 80.4895 348.902 80.3429 348.63 80.1962C348.359 80.0495 348.15 79.8735 348.003 79.6682C347.857 79.4629 347.783 79.1989 347.783 78.8762C347.783 78.3775 347.985 77.9925 348.388 77.7212C348.799 77.4499 349.334 77.3142 349.994 77.3142C350.354 77.3142 350.687 77.3509 350.995 77.4242C351.311 77.4902 351.604 77.5855 351.875 77.7102L351.545 78.4802C351.384 78.4069 351.212 78.3445 351.028 78.2932C350.852 78.2345 350.673 78.1905 350.489 78.1612C350.306 78.1245 350.119 78.1062 349.928 78.1062C349.532 78.1062 349.228 78.1722 349.015 78.3042C348.81 78.4289 348.707 78.6012 348.707 78.8212C348.707 78.9825 348.755 79.1219 348.85 79.2392C348.946 79.3492 349.103 79.4592 349.323 79.5692C349.551 79.6719 349.851 79.7965 350.225 79.9432C350.599 80.0825 350.918 80.2255 351.182 80.3722C351.446 80.5189 351.648 80.6985 351.787 80.9112C351.927 81.1165 351.996 81.3769 351.996 81.6922Z" fill="white"/>
<line x1="128.44" y1="2.6002" x2="169" y2="2.6002" stroke="#FF2FFB" stroke-width="5.2" stroke-linecap="round"/>
</g>
<defs>
<clipPath id="clip0_76_494">
<rect width="390" height="108.16" fill="white"/>
</clipPath>
</defs>
</svg>
