<svg width="150" height="150" viewBox="0 0 150 150" fill="none" xmlns="http://www.w3.org/2000/svg">
<path d="M127.163 52.5921C131.51 62.9939 132.675 74.4511 130.51 85.5149C128.346 96.5787 122.949 106.752 115.003 114.749C107.056 122.745 96.917 128.206 85.8671 130.44C74.8171 132.674 63.3528 131.582 52.9239 127.3C42.495 123.019 33.5698 115.741 27.2771 106.387C20.9844 97.0336 17.6067 86.0239 17.5712 74.7504C17.5357 63.4769 20.8439 52.4461 27.0776 43.0528C33.3113 33.6595 42.1904 26.3257 52.5922 21.9787L74.5709 74.5709L127.163 52.5921Z" fill="#D93558"/>
<path d="M52.5922 21.9787C59.4987 19.0924 66.906 17.5947 74.3914 17.5711C81.8767 17.5476 89.2933 18.9986 96.2179 21.8413C103.142 24.684 109.439 28.8628 114.749 34.139C120.058 39.4153 124.277 45.6856 127.163 52.5922L74.5709 74.5709L52.5922 21.9787Z" fill="#18F0B8"/>
</svg>
